<mxfile host="app.diagrams.net" modified="2023-05-13T15:59:14.933Z" agent="Mozilla/5.0 (Windows NT 10.0; Win64; x64) AppleWebKit/537.36 (KHTML, like Gecko) Chrome/112.0.0.0 Safari/537.36 OPR/98.0.0.0" etag="4VtPiV0kR4ClICKf9gUt" version="21.2.9" type="github">
  <diagram name="Page-1" id="10a91c8b-09ff-31b1-d368-03940ed4cc9e">
    <mxGraphModel dx="830" dy="808" grid="1" gridSize="10" guides="1" tooltips="1" connect="1" arrows="1" fold="1" page="1" pageScale="1" pageWidth="1100" pageHeight="850" background="none" math="0" shadow="0">
      <root>
        <mxCell id="0" />
        <mxCell id="1" parent="0" />
        <mxCell id="62893188c0fa7362-1" value="SRV" style="whiteSpace=wrap;html=1;rounded=1;shadow=1;labelBackgroundColor=none;strokeWidth=1;fontFamily=Verdana;fontSize=32;align=center;fillColor=none;arcSize=0;" parent="1" vertex="1">
          <mxGeometry x="380" y="350" width="220" height="130" as="geometry" />
        </mxCell>
        <mxCell id="5KTXlOafycvouYswGYzO-3" value="&lt;span style=&quot;font-size: 19px;&quot;&gt;BALCÃO&lt;/span&gt;" style="whiteSpace=wrap;html=1;rounded=1;shadow=1;labelBackgroundColor=none;strokeWidth=1;fontFamily=Verdana;fontSize=19;align=center;fillColor=none;" vertex="1" parent="1">
          <mxGeometry x="80" y="510" width="120" height="60" as="geometry" />
        </mxCell>
        <mxCell id="5KTXlOafycvouYswGYzO-12" value="&lt;h1&gt;PRÉ-VENDA&lt;/h1&gt;" style="text;html=1;spacing=5;spacingTop=-20;whiteSpace=wrap;overflow=hidden;rounded=0;" vertex="1" parent="1">
          <mxGeometry x="60" y="190" width="160" height="40" as="geometry" />
        </mxCell>
        <mxCell id="5KTXlOafycvouYswGYzO-21" value="CAIXA" style="ellipse;whiteSpace=wrap;html=1;aspect=fixed;fillColor=none;fontSize=19;" vertex="1" parent="1">
          <mxGeometry x="620" y="680" width="80" height="80" as="geometry" />
        </mxCell>
        <mxCell id="5KTXlOafycvouYswGYzO-22" value="CAIXA" style="ellipse;whiteSpace=wrap;html=1;aspect=fixed;fillColor=none;fontSize=19;" vertex="1" parent="1">
          <mxGeometry x="260" y="680" width="80" height="80" as="geometry" />
        </mxCell>
        <mxCell id="5KTXlOafycvouYswGYzO-23" value="CAIXA" style="ellipse;whiteSpace=wrap;html=1;aspect=fixed;fillColor=none;fontSize=19;" vertex="1" parent="1">
          <mxGeometry x="380" y="680" width="80" height="80" as="geometry" />
        </mxCell>
        <mxCell id="5KTXlOafycvouYswGYzO-24" value="CAIXA" style="ellipse;whiteSpace=wrap;html=1;aspect=fixed;fillColor=none;fontSize=19;" vertex="1" parent="1">
          <mxGeometry x="500" y="680" width="80" height="80" as="geometry" />
        </mxCell>
        <mxCell id="5KTXlOafycvouYswGYzO-29" value="&lt;h1&gt;VENDA FINAL&lt;/h1&gt;" style="text;html=1;spacing=5;spacingTop=-20;whiteSpace=wrap;overflow=hidden;rounded=0;" vertex="1" parent="1">
          <mxGeometry x="390" y="790" width="190" height="40" as="geometry" />
        </mxCell>
        <mxCell id="5KTXlOafycvouYswGYzO-30" value="&lt;h1&gt;SERVIDOR&lt;/h1&gt;" style="text;html=1;spacing=5;spacingTop=-20;whiteSpace=wrap;overflow=hidden;rounded=0;" vertex="1" parent="1">
          <mxGeometry x="420" y="280" width="140" height="40" as="geometry" />
        </mxCell>
        <mxCell id="5KTXlOafycvouYswGYzO-31" value="&lt;span style=&quot;font-size: 19px;&quot;&gt;BALCÃO&lt;/span&gt;" style="whiteSpace=wrap;html=1;rounded=1;shadow=1;labelBackgroundColor=none;strokeWidth=1;fontFamily=Verdana;fontSize=19;align=center;fillColor=none;" vertex="1" parent="1">
          <mxGeometry x="80" y="320" width="120" height="60" as="geometry" />
        </mxCell>
        <mxCell id="5KTXlOafycvouYswGYzO-32" value="&lt;span style=&quot;font-size: 19px;&quot;&gt;BALCÃO&lt;/span&gt;" style="whiteSpace=wrap;html=1;rounded=1;shadow=1;labelBackgroundColor=none;strokeWidth=1;fontFamily=Verdana;fontSize=19;align=center;fillColor=none;" vertex="1" parent="1">
          <mxGeometry x="80" y="410" width="120" height="60" as="geometry" />
        </mxCell>
        <mxCell id="5KTXlOafycvouYswGYzO-34" value="" style="endArrow=classic;html=1;rounded=0;exitX=1;exitY=0.5;exitDx=0;exitDy=0;entryX=0;entryY=0.75;entryDx=0;entryDy=0;" edge="1" parent="1" source="5KTXlOafycvouYswGYzO-3" target="62893188c0fa7362-1">
          <mxGeometry width="50" height="50" relative="1" as="geometry">
            <mxPoint x="420" y="610" as="sourcePoint" />
            <mxPoint x="470" y="560" as="targetPoint" />
          </mxGeometry>
        </mxCell>
        <mxCell id="5KTXlOafycvouYswGYzO-35" value="" style="endArrow=classic;html=1;rounded=0;exitX=1;exitY=0.5;exitDx=0;exitDy=0;entryX=0;entryY=0.5;entryDx=0;entryDy=0;" edge="1" parent="1" target="62893188c0fa7362-1">
          <mxGeometry width="50" height="50" relative="1" as="geometry">
            <mxPoint x="200" y="442" as="sourcePoint" />
            <mxPoint x="380" y="350" as="targetPoint" />
          </mxGeometry>
        </mxCell>
        <mxCell id="5KTXlOafycvouYswGYzO-36" value="" style="endArrow=classic;html=1;rounded=0;exitX=1;exitY=0.5;exitDx=0;exitDy=0;entryX=0;entryY=0.25;entryDx=0;entryDy=0;" edge="1" parent="1" target="62893188c0fa7362-1">
          <mxGeometry width="50" height="50" relative="1" as="geometry">
            <mxPoint x="200" y="350" as="sourcePoint" />
            <mxPoint x="380" y="323" as="targetPoint" />
          </mxGeometry>
        </mxCell>
        <mxCell id="5KTXlOafycvouYswGYzO-38" value="" style="endArrow=none;dashed=1;html=1;dashPattern=1 3;strokeWidth=2;rounded=0;entryX=0.5;entryY=1;entryDx=0;entryDy=0;exitX=0;exitY=0;exitDx=0;exitDy=0;" edge="1" parent="1" source="5KTXlOafycvouYswGYzO-22" target="5KTXlOafycvouYswGYzO-3">
          <mxGeometry width="50" height="50" relative="1" as="geometry">
            <mxPoint x="90" y="650" as="sourcePoint" />
            <mxPoint x="140" y="600" as="targetPoint" />
            <Array as="points">
              <mxPoint x="220" y="692" />
              <mxPoint x="180" y="660" />
              <mxPoint x="150" y="620" />
            </Array>
          </mxGeometry>
        </mxCell>
        <mxCell id="5KTXlOafycvouYswGYzO-39" value="" style="endArrow=none;dashed=1;html=1;dashPattern=1 3;strokeWidth=2;rounded=0;entryX=0.75;entryY=1;entryDx=0;entryDy=0;exitX=0;exitY=0;exitDx=0;exitDy=0;" edge="1" parent="1" source="5KTXlOafycvouYswGYzO-23" target="5KTXlOafycvouYswGYzO-3">
          <mxGeometry width="50" height="50" relative="1" as="geometry">
            <mxPoint x="282" y="702" as="sourcePoint" />
            <mxPoint x="150" y="580" as="targetPoint" />
            <Array as="points">
              <mxPoint x="270" y="660" />
              <mxPoint x="240" y="650" />
              <mxPoint x="210" y="620" />
            </Array>
          </mxGeometry>
        </mxCell>
      </root>
    </mxGraphModel>
  </diagram>
</mxfile>
